<?xml version="1.0" encoding="utf-8"?>
<!-- Generator: Adobe Illustrator 21.0.0, SVG Export Plug-In . SVG Version: 6.00 Build 0)  -->
<svg version="1.1" id="Layer_1" xmlns="http://www.w3.org/2000/svg" xmlns:xlink="http://www.w3.org/1999/xlink" x="0px" y="0px"
	 viewBox="0 0 1600 1200" style="enable-background:new 0 0 1600 1200;" xml:space="preserve">
<style type="text/css">
	.st0{fill:#060800;}
	.st1{fill:#028E01;}
</style>
<g id="layer1">
	<path class="st0" d="M948.6,847.7c-29.5-3.5-69.7-18.8-69.7-26.5c0-2.2,5.5-32.3,7.4-40.6c0.9-4.1,3.7-3.9,12,0.8
		c21,11.8,48.6,19.4,71.9,19.4c24.5,0.1,41.7-6,53.5-18.8c9.7-10.7,11.9-19.4,11.1-44.8l-0.3-10l-10.4,9.7
		c-11.6,10.8-29.1,20.3-43,23.1c-11.1,2.2-34.4,1.9-46.7-0.7c-13.1-2.7-32.1-12.2-43.4-21.5c-16.5-13.7-30.5-36-36.7-58.6
		c-2.4-9.1-3-14.3-3-35.1c-0.1-21.2,0.3-25.9,3-35.7c11.5-42.4,40.2-73.2,77.3-82.8c13.1-3.5,38.8-3.8,50.9-0.7
		c15.4,4.2,24.8,9.9,38.3,23.4c6.9,7,13.1,12.3,13.8,11.9c0.8-0.5,1.2-8.5,1.1-19.4c-0.1-10.2,0.1-19.4,0.7-20.2
		c1.5-2.4,4.5-2.3,28.6,2.3c30.3,5.7,31.8,6.2,32.8,10.4c1.4,5.4-0.7,207.9-2.3,221c-6.2,52-30.6,80.9-76.9,91.5
		C1007.4,848.4,963.9,849.6,948.6,847.7z M985.6,715.1c10.6-2.4,20.3-8.1,28.3-16.8c14.2-15.2,20.8-32.3,20.8-54.1
		c0-31.9-16-58.9-40.5-68.5c-10.8-4.2-31.7-4.3-42-0.3c-25.3,10-41.1,36.5-41.1,68.8c0,26.9,11.1,50.2,30.2,62.9
		c4.5,3,8.5,5.4,9.1,5.4c0.4,0.1,3.9,0.9,7.6,2C966.2,716.7,977.5,717,985.6,715.1z"/>
	<path class="st0" d="M545.6,796.6c-21.2-4.6-36.5-11.6-53.6-24.5c-32.5-24.4-55-63.5-59.1-102.6c-0.8-7.3-1.4-8.4-3.2-7.6
		c-28.8,13-68.3,16.2-99.1,8.3c-31.4-8.3-54.8-24.5-75.9-52.9c-23.7-31.8-35.1-76.7-31-122.4c3.9-44.3,18.8-78.4,46.2-105.7
		c27.1-27.2,61.2-39.5,103.4-37.6c38.8,1.8,68.3,15.8,96.6,46c3.8,4.2,7,8.8,7,10.3c0,3-23.3,35.1-26.4,36.3
		c-1.4,0.4-5.8-2.6-11.9-8c-5.3-4.9-12.7-11.1-16.4-13.8c-33.3-25.3-81.1-24.5-109.6,1.9c-15.4,14.3-25.4,33.4-30.7,58.5
		c-2.4,12-2.7,16.9-2.2,36.3c0.8,25.2,3.2,36.8,11.2,53.6c15.6,32.9,41.7,49.5,77.6,49.4c25.2,0,41.1-6.9,62.9-27.1
		c9.9-9.1,15.8-15.7,18.4-20.6c6.1-11.5,18.8-27.9,29.4-37.8c29-26.9,62.1-39.3,101.9-37.5c36.4,1.6,64.8,13.4,90.1,37.8
		c18.3,17.6,29,33.2,37.5,54.5c7.4,19.1,9.7,31.8,9.7,56.8c0,38-8.8,65.4-29.8,93.4c-8.3,11-25.3,27.7-35.1,34.4
		c-9.6,6.6-29.8,15.8-42.1,19.1C595.7,799.4,561.9,800.1,545.6,796.6z M600.4,733.8c12.5-4.6,19.6-9.1,28.8-18.4
		c9.3-9.5,18.3-23.7,22.2-35.2c6.2-18.5,6.1-45.1-0.5-63.7c-9.2-26.4-30.2-47.1-54.4-53.5c-10.7-2.8-32.8-2.8-42.5,0.1
		c-13.9,4.1-25.2,11.1-35.3,21.9c-41.3,44.3-28.2,120.6,25.2,145.9c5.3,2.6,12.9,5.1,16.9,5.8C572.3,738.8,590.3,737.4,600.4,733.8z
		"/>
	<path class="st0" d="M1149.5,780.2c-1.8-1.1-2-12.3-2-86.9c0-93-0.1-95.8-8.3-134.1c-2.8-13.4-3.1-16.5-1.6-17.9
		c1.4-1.4,49.4-9.9,60-10.7c2.2-0.1,2.8,1.1,3.7,7.3c1.5,10.3,5.4,28.4,6.2,28.4c0.3,0,8.4-5.8,17.9-12.7
		c30-22.3,47.5-29.2,73.8-29.2c42.6,0.1,65.5,16.1,74.4,52.1c2.2,8.4,2.6,20.6,3.4,104.9c0.4,52.5,0.3,96.5-0.3,97.9
		c-1.1,2-3.8,2.3-28.6,2.3c-15,0-28.3-0.7-29.4-1.4c-1.8-1.1-2-12-2-85.5v-84.3l-3.1-9.2c-5.3-15.7-14.1-22.5-32.6-25.4
		c-7-1.1-11.5-0.9-17.2,0.1c-15.7,3.2-44.7,21.1-52,31.9l-3.4,5.1l-0.7,83.9l-0.7,84l-27.7,0.3
		C1163.4,781.4,1150.8,781,1149.5,780.2z"/>
	<path class="st0" d="M750.3,777.3c-1.1-2-1.4-21.2-0.7-69.3c0.8-54.8,0.5-71.9-1.2-96.4c-1.2-16.4-2.6-40.5-3.1-53.6
		c-0.7-21.2-0.5-23.8,1.4-24.6c1.2-0.4,9.1-0.1,17.3,0.7c11.4,1.2,18.8,1.2,30.7,0c12.7-1.2,16.1-1.2,17.6,0.1
		c1.8,1.9,1.2,22.2-2.6,86.2c-0.8,14.2-1.2,54.1-0.9,92l0.4,67l-28.7,0.4C752.6,780.2,751.8,780.2,750.3,777.3z"/>
	<path class="st0" d="M765.8,497.4c-14.6-3.7-22.3-14.1-22.3-30.2c0-10.7,3.2-18,10.7-24.4c18.1-15.4,48.3-10.2,57.8,10.3
		c6,12.9,2.7,30.9-6.9,38.4C797.5,497.6,778.3,500.4,765.8,497.4z"/>
</g>
<g id="layer2">
	<path class="st1" d="M562.4,689.1c-5.8-1.8-15.7-10.7-19.9-17.6c-9.2-15.8-5.7-39.7,7.7-51.7c18.5-16.8,46-11.2,57.7,11.6
		c3.9,7.6,4.6,10.3,4.6,18.5c0,22.9-16.6,41-37.5,40.7C570.5,690.6,564.9,689.9,562.4,689.1z"/>
</g>
</svg>
