<?xml version="1.0" encoding="utf-8"?>
<!-- Generator: Adobe Illustrator 21.0.0, SVG Export Plug-In . SVG Version: 6.00 Build 0)  -->
<svg version="1.1" id="Layer_1" xmlns="http://www.w3.org/2000/svg" xmlns:xlink="http://www.w3.org/1999/xlink" x="0px" y="0px"
	 viewBox="0 0 100 50" style="enable-background:new 0 0 100 50;" xml:space="preserve">
<style type="text/css">
	.st0{fill:#FFFFFF;}
</style>
<g id="layer1">
	<path class="st0" d="M61.7,44.8c-2.3-0.3-5.4-1.5-5.4-2.1c0-0.2,0.4-2.5,0.6-3.2c0.1-0.3,0.3-0.3,0.9,0.1c1.6,0.9,3.8,1.5,5.6,1.5
		c1.9,0,3.3-0.5,4.2-1.5c0.8-0.8,0.9-1.5,0.9-3.5l0-0.8l-0.8,0.8c-0.9,0.8-2.3,1.6-3.4,1.8c-0.9,0.2-2.7,0.1-3.6-0.1
		c-1-0.2-2.5-1-3.4-1.7c-1.3-1.1-2.4-2.8-2.9-4.6c-0.2-0.7-0.2-1.1-0.2-2.7c0-1.7,0-2,0.2-2.8c0.9-3.3,3.1-5.7,6-6.5
		c1-0.3,3-0.3,4-0.1c1.2,0.3,1.9,0.8,3,1.8c0.5,0.6,1,1,1.1,0.9c0.1,0,0.1-0.7,0.1-1.5c0-0.8,0-1.5,0.1-1.6c0.1-0.2,0.3-0.2,2.2,0.2
		c2.4,0.4,2.5,0.5,2.6,0.8c0.1,0.4-0.1,16.2-0.2,17.3c-0.5,4.1-2.4,6.3-6,7.2C66.3,44.8,62.9,44.9,61.7,44.8z M64.6,34.4
		c0.8-0.2,1.6-0.6,2.2-1.3c1.1-1.2,1.6-2.5,1.6-4.2c0-2.5-1.2-4.6-3.2-5.4c-0.8-0.3-2.5-0.3-3.3,0c-2,0.8-3.2,2.9-3.2,5.4
		c0,2.1,0.9,3.9,2.4,4.9c0.3,0.2,0.7,0.4,0.7,0.4c0,0,0.3,0.1,0.6,0.2C63.1,34.6,64,34.6,64.6,34.4z"/>
	<path class="st0" d="M30.2,40.8c-1.7-0.4-2.9-0.9-4.2-1.9c-2.5-1.9-4.3-5-4.6-8c-0.1-0.6-0.1-0.7-0.3-0.6c-2.3,1-5.3,1.3-7.7,0.6
		C11,30.3,9.1,29,7.5,26.8c-1.9-2.5-2.7-6-2.4-9.6c0.3-3.5,1.5-6.1,3.6-8.3c2.1-2.1,4.8-3.1,8.1-2.9c3,0.1,5.3,1.2,7.6,3.6
		c0.3,0.3,0.6,0.7,0.6,0.8c0,0.2-1.8,2.7-2.1,2.8c-0.1,0-0.5-0.2-0.9-0.6c-0.4-0.4-1-0.9-1.3-1.1c-2.6-2-6.3-1.9-8.6,0.1
		c-1.2,1.1-2,2.6-2.4,4.6c-0.2,0.9-0.2,1.3-0.2,2.8c0.1,2,0.3,2.9,0.9,4.2c1.2,2.6,3.3,3.9,6.1,3.9c2,0,3.2-0.5,4.9-2.1
		c0.8-0.7,1.2-1.2,1.4-1.6c0.5-0.9,1.5-2.2,2.3-3c2.3-2.1,4.9-3.1,8-2.9c2.8,0.1,5.1,1,7,3c1.4,1.4,2.3,2.6,2.9,4.3
		c0.6,1.5,0.8,2.5,0.8,4.4c0,3-0.7,5.1-2.3,7.3c-0.6,0.9-2,2.2-2.7,2.7c-0.8,0.5-2.3,1.2-3.3,1.5C34.1,41,31.5,41.1,30.2,40.8z
		 M34.5,35.9c1-0.4,1.5-0.7,2.3-1.4c0.7-0.7,1.4-1.9,1.7-2.8c0.5-1.4,0.5-3.5,0-5c-0.7-2.1-2.4-3.7-4.3-4.2c-0.8-0.2-2.6-0.2-3.3,0
		c-1.1,0.3-2,0.9-2.8,1.7c-3.2,3.5-2.2,9.4,2,11.4c0.4,0.2,1,0.4,1.3,0.5C32.3,36.3,33.7,36.2,34.5,35.9z"/>
	<path class="st0" d="M77.4,39.5c-0.1-0.1-0.2-1-0.2-6.8c0-7.3,0-7.5-0.6-10.5c-0.2-1-0.2-1.3-0.1-1.4c0.1-0.1,3.9-0.8,4.7-0.8
		c0.2,0,0.2,0.1,0.3,0.6c0.1,0.8,0.4,2.2,0.5,2.2c0,0,0.7-0.5,1.4-1c2.3-1.7,3.7-2.3,5.8-2.3c3.3,0,5.1,1.3,5.8,4.1
		c0.2,0.7,0.2,1.6,0.3,8.2c0,4.1,0,7.5,0,7.6c-0.1,0.2-0.3,0.2-2.2,0.2c-1.2,0-2.2-0.1-2.3-0.1c-0.1-0.1-0.2-0.9-0.2-6.7v-6.6
		l-0.2-0.7c-0.4-1.2-1.1-1.8-2.5-2c-0.6-0.1-0.9-0.1-1.3,0c-1.2,0.3-3.5,1.7-4.1,2.5L82,26.4L82,33l-0.1,6.6l-2.2,0
		C78.5,39.6,77.5,39.6,77.4,39.5z"/>
	<path class="st0" d="M46.2,39.3c-0.1-0.2-0.1-1.7-0.1-5.4c0.1-4.3,0-5.6-0.1-7.5c-0.1-1.3-0.2-3.2-0.2-4.2c-0.1-1.7,0-1.9,0.1-1.9
		c0.1,0,0.7,0,1.4,0.1c0.9,0.1,1.5,0.1,2.4,0c1-0.1,1.3-0.1,1.4,0c0.1,0.1,0.1,1.7-0.2,6.7c-0.1,1.1-0.1,4.2-0.1,7.2l0,5.2l-2.2,0
		C46.4,39.5,46.3,39.5,46.2,39.3z"/>
	<path class="st0" d="M47.4,17.4c-1.1-0.3-1.7-1.1-1.7-2.4c0-0.8,0.3-1.4,0.8-1.9c1.4-1.2,3.8-0.8,4.5,0.8c0.5,1,0.2,2.4-0.5,3
		C49.9,17.4,48.4,17.7,47.4,17.4z"/>
</g>
<g id="layer2">
	<path class="st0" d="M31.5,32.4c-0.5-0.1-1.2-0.8-1.6-1.4c-0.7-1.2-0.4-3.1,0.6-4c1.4-1.3,3.6-0.9,4.5,0.9c0.3,0.6,0.4,0.8,0.4,1.4
		c0,1.8-1.3,3.2-2.9,3.2C32.2,32.5,31.7,32.5,31.5,32.4z"/>
</g>
</svg>
