<?xml version="1.0" encoding="utf-8"?>
<!-- Generator: Adobe Illustrator 21.0.0, SVG Export Plug-In . SVG Version: 6.00 Build 0)  -->
<svg version="1.1" id="Layer_1" xmlns="http://www.w3.org/2000/svg" xmlns:xlink="http://www.w3.org/1999/xlink" x="0px" y="0px"
	 viewBox="0 0 1024 1024" style="enable-background:new 0 0 1024 1024;" xml:space="preserve">
<style type="text/css">
	.st0{fill:#060800;}
	.st1{fill:#028E01;}
</style>
<path class="st0" d="M610.8,804.8c-28.1-6.1-48.3-15.4-70.9-32.4c-43-32.2-72.7-84-78.2-135.7c-1.1-9.7-1.8-11.1-4.3-10
	c-38.1,17.2-90.4,21.5-131,10.9c-41.5-10.9-72.5-32.4-100.4-70c-31.3-42.1-46.4-101.5-41-161.8c5.2-58.5,24.9-103.6,61-139.8
	c35.8-36,80.9-52.3,136.8-49.8c51.4,2.3,90.4,20.9,127.8,60.9c5,5.5,9.3,11.6,9.3,13.6c0,3.9-30.8,46.4-34.9,48
	c-1.8,0.5-7.7-3.4-15.8-10.6c-7-6.4-16.8-14.7-21.7-18.3c-44-33.5-107.2-32.4-145,2.5c-20.4,19-33.7,44.2-40.6,77.3
	c-3.2,15.9-3.6,22.4-2.9,48c1.1,33.3,4.3,48.7,14.9,70.9c20.6,43.5,55.1,65.5,102.6,65.3c33.3,0,54.4-9.1,83.2-35.8
	c13.1-12,20.9-20.8,24.3-27.2c8.1-15.2,24.9-36.9,38.8-49.9c38.3-35.6,82.2-51.9,134.8-49.6c48.2,2.1,85.7,17.7,119.2,49.9
	c24.2,23.3,38.3,43.9,49.6,72.1c9.8,25.2,12.9,42.1,12.9,75.2c0,50.3-11.6,86.5-39.4,123.5c-10.9,14.5-33.5,36.7-46.4,45.5
	c-12.7,8.8-39.4,20.9-55.7,25.2C677,808.6,632.2,809.5,610.8,804.8z M683.3,721.8c16.5-6.1,26-12,38.1-24.3
	c12.4-12.5,24.2-31.3,29.4-46.5c8.2-24.5,8.1-59.6-0.7-84.3c-12.2-34.9-39.9-62.3-72-70.7c-14.1-3.8-43.3-3.8-56.2,0.2
	c-18.4,5.4-33.3,14.7-46.7,29c-54.6,58.5-37.2,159.5,33.3,193c7,3.4,17,6.8,22.4,7.7C646,728.4,669.8,726.6,683.3,721.8z"/>
<g id="layer2">
	<path class="st1" d="M633,662.7c-7.7-2.3-20.8-14.1-26.3-23.3c-12.2-20.9-7.5-52.4,10.2-68.4c24.5-22.2,60.9-14.9,76.3,15.4
		c5.2,10,6.1,13.6,6.1,24.5c0,30.3-22,54.2-49.6,53.9C643.7,664.7,636.2,663.8,633,662.7z"/>
</g>
</svg>
